<svg width="30" height="26" viewBox="0 0 30 26" fill="none" xmlns="http://www.w3.org/2000/svg">
<path d="M22.9575 2.73855L22.9575 23.1929C22.9569 23.7955 22.7173 24.3732 22.2912 24.7993C21.8651 25.2253 21.2874 25.465 20.6848 25.4656L16.1394 25.4656C15.5368 25.465 14.9591 25.2253 14.533 24.7993C14.1069 24.3732 13.8673 23.7955 13.8667 23.1929L13.8667 2.73855C13.8673 2.13597 14.1069 1.55825 14.533 1.13217C14.9591 0.706083 15.5368 0.466443 16.1394 0.465841L20.6848 0.46584C21.2874 0.466443 21.8651 0.706082 22.2912 1.13217C22.7173 1.55825 22.9569 2.13597 22.9575 2.73855ZM16.1394 23.1929L20.6848 23.1929L20.6848 2.73855L16.1394 2.73855L16.1394 23.1929ZM16.1394 2.73855L16.1394 23.1929C16.1388 23.7955 15.8992 24.3731 15.4731 24.7992C15.047 25.2253 14.4693 25.4649 13.8667 25.4655L9.32128 25.4655C8.71871 25.4649 8.14099 25.2253 7.7149 24.7992C7.28882 24.3731 7.04918 23.7954 7.04858 23.1928L7.04858 2.73852C7.04918 2.13595 7.28882 1.55823 7.7149 1.13214C8.14099 0.706058 8.71871 0.466423 9.32128 0.46582L13.8667 0.46582C14.4693 0.466422 15.047 0.706058 15.4731 1.13214C15.8992 1.55823 16.1388 2.13597 16.1394 2.73855ZM9.32128 23.1928L13.8667 23.1929L13.8667 2.73855L9.32128 2.73852L9.32128 23.1928ZM9.32128 2.73852L9.32128 23.1928C9.32068 23.7954 9.08104 24.3731 8.65496 24.7992C8.22887 25.2253 7.65115 25.4649 7.04858 25.4656L2.50317 25.4656C1.9006 25.4649 1.32288 25.2253 0.896793 24.7992C0.470708 24.3731 0.23107 23.7954 0.230469 23.1928L0.230468 2.73852C0.231069 2.13595 0.470707 1.55823 0.896792 1.13214C1.32288 0.706058 1.9006 0.466423 2.50317 0.46582L7.04858 0.46582C7.65115 0.466423 8.22887 0.706058 8.65496 1.13214C9.08104 1.55823 9.32068 2.13595 9.32128 2.73852ZM2.50317 23.1928L7.04858 23.1928L7.04858 2.73852L2.50317 2.73852L2.50317 23.1928Z" fill="white"/>
<path d="M29.7756 2.7388L29.7756 23.1931C29.775 23.7957 29.5354 24.3734 29.1093 24.7995C28.6832 25.2256 28.1055 25.4652 27.5029 25.4658L22.9575 25.4658C22.3549 25.4652 21.7772 25.2256 21.3511 24.7995C20.925 24.3734 20.6854 23.7955 20.6848 23.1929L20.6848 2.73855C20.6854 2.13597 20.925 1.5585 21.3511 1.13242C21.7772 0.706334 22.3549 0.466697 22.9575 0.466094L27.5029 0.466094C28.1055 0.466696 28.6832 0.706334 29.1093 1.13242C29.5354 1.5585 29.775 2.13622 29.7756 2.7388ZM22.9575 23.1929L27.5029 23.1931L27.5029 2.7388L22.9575 2.73855L22.9575 23.1929Z" fill="white"/>
</svg>
