<svg width="30" height="31" viewBox="0 0 30 31" fill="none" xmlns="http://www.w3.org/2000/svg">
<mask id="mask0_219755_3856" style="mask-type:alpha" maskUnits="userSpaceOnUse" x="0" y="0" width="30" height="31">
<rect y="0.98291" width="30" height="30" fill="#D9D9D9"/>
</mask>
<g mask="url(#mask0_219755_3856)">
<path d="M4.62652 28.1853C3.95579 28.1853 3.38161 27.9465 2.90396 27.4689C2.42632 26.9912 2.1875 26.417 2.1875 25.7463V8.67314C2.1875 8.00241 2.42632 7.42822 2.90396 6.95058C3.38161 6.47294 3.95579 6.23411 4.62652 6.23411H15.5107L13.0716 8.67314H4.62652V25.7463H21.6997V17.2707L24.1387 14.8317V25.7463C24.1387 26.417 23.8999 26.9912 23.4223 27.4689C22.9446 27.9465 22.3704 28.1853 21.6997 28.1853H4.62652ZM18.2546 6.93533L19.9924 8.64265L11.9436 16.6914V18.4292H13.6509L21.7302 10.35L23.468 12.0573L15.3887 20.1366C15.1651 20.3601 14.906 20.538 14.6113 20.6701C14.3166 20.8022 14.0066 20.8683 13.6814 20.8683H10.7241C10.3786 20.8683 10.0889 20.7514 9.85518 20.5177C9.62144 20.2839 9.50457 19.9943 9.50457 19.6488V16.6914C9.50457 16.3662 9.56555 16.0563 9.6875 15.7616C9.80945 15.4668 9.98222 15.2077 10.2058 14.9841L18.2546 6.93533ZM23.468 12.0573L18.2546 6.93533L21.3034 3.88655C21.7912 3.39875 22.3755 3.15485 23.0564 3.15485C23.7373 3.15485 24.3115 3.39875 24.779 3.88655L26.4863 5.62436C26.9538 6.09184 27.1875 6.66094 27.1875 7.33168C27.1875 8.00241 26.9538 8.57151 26.4863 9.03899L23.468 12.0573Z" fill="#CDCDCD"/>
</g>
</svg>
