<svg width="20" height="19" viewBox="0 0 20 19" fill="none" xmlns="http://www.w3.org/2000/svg">
<g clip-path="url(#clip0_88_1212)">
<path d="M19.7555 0V1.69C19.7571 2.31796 19.6342 2.94002 19.3939 3.52019C19.1536 4.10036 18.8007 4.62712 18.3555 5.07L5.92547 17.5C5.48259 17.9452 4.95583 18.2982 4.37566 18.5385C3.79549 18.7788 3.17343 18.9017 2.54547 18.9H0.855469L19.7555 0Z" fill="#D1D1D1"/>
<path d="M19.7555 6.31006V8.00006C19.7561 8.62786 19.6327 9.2496 19.3925 9.82961C19.1522 10.4096 18.7998 10.9365 18.3555 11.3801L12.2355 17.5001C11.792 17.9444 11.2651 18.2967 10.6851 18.537C10.1051 18.7772 9.48333 18.9006 8.85553 18.9001H7.16553L19.7555 6.31006Z" fill="#D1D1D1"/>
<path d="M19.7556 12.4299V14.1199C19.7562 14.7477 19.6328 15.3695 19.3926 15.9495C19.1523 16.5295 18.7999 17.0564 18.3556 17.4999C17.9121 17.9442 17.3852 18.2966 16.8052 18.5369C16.2252 18.7771 15.6034 18.9005 14.9756 18.8999H13.2856L19.7556 12.4299Z" fill="#D1D1D1"/>
</g>
<defs>
<clipPath id="clip0_88_1212">
<rect width="18.9" height="18.9" fill="white" transform="translate(0.855469)"/>
</clipPath>
</defs>
</svg>
